<?xml version="1.0" encoding="utf-8"?>
<!-- Generator: Adobe Illustrator 28.7.1, SVG Export Plug-In . SVG Version: 9.03 Build 54978)  -->
<svg version="1.1" id="Слой_1" xmlns="http://www.w3.org/2000/svg" xmlns:xlink="http://www.w3.org/1999/xlink" x="0px" y="0px"
	 viewBox="0 0 20 20" style="enable-background:new 0 0 20 20;" xml:space="preserve">
<style type="text/css">
	.Тень{fill:none;}
	.Скругленные_x0020_углы_x0020_2_x0020_pt_x002E_{fill:#FFFFFF;stroke:#000000;stroke-miterlimit:10;}
	.Быстрое_x0020_отражение_x0020_X{fill:none;}
	.Скос_x0020_мягкий{fill:url(#SVGID_1_);}
	.Сумрак{fill:#FFFFFF;}
	.Лиственный_x0020_орнамент_чб{fill:#FFDD00;}
	.Помпадур_чб{fill-rule:evenodd;clip-rule:evenodd;fill:#51AEE2;}
	.st0{fill:#FFFFFF;stroke:#FFFFFF;stroke-miterlimit:10;}
</style>
<linearGradient id="SVGID_1_" gradientUnits="userSpaceOnUse" x1="0" y1="0" x2="0.7071" y2="0.7071">
	<stop  offset="0" style="stop-color:#E6E6EB"/>
	<stop  offset="0.1738" style="stop-color:#E2E2E6"/>
	<stop  offset="0.352" style="stop-color:#D5D4D8"/>
	<stop  offset="0.5323" style="stop-color:#C0BFC2"/>
	<stop  offset="0.7139" style="stop-color:#A4A2A4"/>
	<stop  offset="0.8949" style="stop-color:#828282"/>
	<stop  offset="1" style="stop-color:#6B6E6E"/>
</linearGradient>
<path class="st0" d="M12.2,19H7.8c-1.4,0-2.5-1.1-2.5-2.5V3.6C5.2,2.2,6.4,1,7.8,1h4.5c1.4,0,2.5,1.1,2.5,2.5v12.8
	C14.8,17.8,13.6,19,12.2,19z"/>
<path class="st0" d="M0.8,12.4V7.9c0-1.4,1.1-2.5,2.5-2.5h12.8c1.4,0,2.5,1.1,2.5,2.5v4.5c0,1.4-1.1,2.5-2.5,2.5H3.3
	C1.9,14.9,0.8,13.8,0.8,12.4z"/>
</svg>
