<?xml version="1.0" encoding="utf-8"?>
<!-- Generator: Adobe Illustrator 28.7.1, SVG Export Plug-In . SVG Version: 9.03 Build 54978)  -->
<svg version="1.1" xmlns="http://www.w3.org/2000/svg" xmlns:xlink="http://www.w3.org/1999/xlink" x="0px" y="0px"
	 viewBox="0 0 100 100" style="enable-background:new 0 0 100 100;" xml:space="preserve">
<style type="text/css">
	.Тень{fill:none;}
	.Внешнее_x0020_свечение_x0020_5_x0020_pt_x002E_{fill:none;}
	.Синий_x0020_неон{fill:none;stroke:#8AACDA;stroke-width:7;stroke-linecap:round;stroke-linejoin:round;}
	.Выделение_x0020_желтым{fill:url(#SVGID_1_);stroke:#FFFFFF;stroke-width:0.3629;stroke-miterlimit:1;}
	.Джайв_GS{fill:#FFDD00;}
	.Алиса_GS{fill:#A6D0E4;}
	.st0{display:none;}
	.st1{display:inline;}
	.st2{fill:none;stroke:#FFFFFF;stroke-width:3;stroke-miterlimit:10;}
	.st3{fill:none;}
	.st4{fill:#FFFFFF;}
	.st5{font-family:'FranklinGothic-Heavy';}
	.st6{font-size:14px;}
	.st7{fill:none;stroke:#FFFFFF;stroke-width:5;stroke-linecap:round;stroke-linejoin:round;stroke-miterlimit:133.3333;}
</style>
<linearGradient id="SVGID_1_" gradientUnits="userSpaceOnUse" x1="0" y1="0" x2="6.123234e-17" y2="-1">
	<stop  offset="0" style="stop-color:#656565"/>
	<stop  offset="0.618" style="stop-color:#1B1B1B"/>
	<stop  offset="0.6292" style="stop-color:#545454"/>
	<stop  offset="0.9831" style="stop-color:#3E3E3E"/>
</linearGradient>
<g id="Слой_1" class="st0">
	<g class="st1">
		<rect x="-1" y="0" width="100" height="101"/>
	</g>
</g>
<g id="Слой_2">
	<path class="st2" d="M84.5,95H15.5C9.7,95,5,90.3,5,84.5V15.5C5,9.7,9.7,5,15.5,5h68.9C90.3,5,95,9.7,95,15.5v68.9
		C95,90.3,90.3,95,84.5,95z"/>
	<rect x="10" y="77.3" class="st3" width="81" height="13.5"/>
	<text transform="matrix(1 0 0 1 10 86.6406)" class="st4 st5 st6">СОХРАНИТЬ</text>
	<g id="System__x2F__Save">
		<path id="Vector" class="st7" d="M64.4,66.9l-28.3,0 M64.4,66.9l2.3,0c3.2,0,4.8,0,6-0.6c1.1-0.5,1.9-1.4,2.5-2.5
			c0.6-1.2,0.6-2.8,0.6-6V33.5c0-1.3,0-1.9-0.1-2.5c-0.1-0.5-0.3-1.1-0.6-1.5c-0.3-0.5-0.7-1-1.6-1.9l-7.8-8.7c-1-1.1-1.5-1.6-2-2
			c-0.5-0.4-1.1-0.6-1.7-0.8c-0.7-0.2-1.4-0.2-2.9-0.2H33.8c-3.2,0-4.8,0-6,0.6c-1.1,0.5-1.9,1.4-2.5,2.5c-0.6,1.2-0.6,2.8-0.6,6
			v32.9c0,3.2,0,4.8,0.6,6c0.5,1.1,1.4,1.9,2.5,2.5c1.2,0.6,2.8,0.6,6,0.6h2.3 M64.4,66.9V56.1c0-3.2,0-4.8-0.6-6
			c-0.5-1.1-1.4-1.9-2.5-2.5c-1.2-0.6-2.8-0.6-6-0.6H45.2c-3.2,0-4.8,0-6,0.6c-1.1,0.5-1.9,1.4-2.5,2.5c-0.6,1.2-0.6,2.8-0.6,6v10.8
			 M58.7,27.2h-17"/>
	</g>
</g>
</svg>
